<?xml version="1.0" encoding="utf-8"?>
<!-- Generator: Adobe Illustrator 27.6.1, SVG Export Plug-In . SVG Version: 6.00 Build 0)  -->
<svg version="1.1" id="Layer_2_00000085237620752458419170000016644533120916193970_"
	 xmlns="http://www.w3.org/2000/svg" xmlns:xlink="http://www.w3.org/1999/xlink" x="0px" y="0px" viewBox="0 0 47.5 47.5"
	 style="enable-background:new 0 0 47.5 47.5;" xml:space="preserve">
<style type="text/css">
	.st0{fill:none;stroke:#000000;stroke-width:2;stroke-linejoin:round;}
	.st1{fill:none;stroke:#000000;stroke-width:2;stroke-linecap:round;stroke-linejoin:bevel;}
	.st2{fill:none;stroke:#000000;stroke-linejoin:round;}
	.st3{fill:none;stroke:#000000;stroke-width:2;stroke-linecap:round;stroke-linejoin:round;}
</style>
<g id="Layer_2-2">
	<g>
		<path class="st0" d="M27.8,16.6c0-0.2-0.3-0.4-0.4-0.2L2.8,40.9C1.1,42,1,44.4,2.4,45.6c2,1.7,5.5-0.1,4.5-3l6.5-6.5l1.3,1.3
			l9.8-9.8C26.4,25.8,27.8,25.4,27.8,16.6z"/>
		<line class="st1" x1="25.5" y1="14.7" x2="23.6" y2="11.4"/>
		<line class="st1" x1="23.9" y1="16.4" x2="14.5" y2="10.9"/>
		<line class="st1" x1="22.1" y1="18.1" x2="14.8" y2="18.1"/>
		<line class="st1" x1="19.9" y1="20.7" x2="14.5" y2="23.8"/>
		<path d="M47.5,25.1V3.4C36.1,3.4,27.8,0,27.8,0S19.6,3.4,8.1,3.4v21.7c0,1.8-0.2,3.7,0.8,6C9,31.2,9,31.4,9.1,31.5l1.3-1.3
			c-0.6-1.6-0.6-2.9-0.6-4.3c0-0.3,0-0.5,0-0.8V5.1c9.1-0.3,16-2.5,18-3.2c2.1,0.8,8.9,3,18,3.2v20c0,0.3,0,0.5,0,0.8
			c0,2.5,0.1,5.1-4.2,9c-3.5,3.2-5.7,4.5-7.8,5.7C33,41.1,32,41.7,31,42.4c-1.4,0.9-2.4,1.7-3.2,2.4c-0.8-0.7-1.8-1.4-3.2-2.4
			c-1-0.7-2-1.2-2.9-1.8c-1.2-0.7-2.5-1.4-4.1-2.6c-0.1-0.1-0.2-0.2-0.3-0.2L16.1,39c0.2,0.1,0.3,0.3,0.5,0.4
			c2.9,2.1,4.8,2.8,7.1,4.4c3.1,2.1,4,3.1,4.1,3.8c0.1-0.7,1-1.6,4.1-3.8c3.1-2.1,5.6-2.7,10.9-7.6C48.1,31.3,47.5,28,47.5,25.1
			L47.5,25.1z"/>
		<line class="st1" x1="13.4" y1="36.1" x2="10.5" y2="33.2"/>
		<circle class="st2" cx="4.2" cy="43.5" r="0.4"/>
	</g>
	<line class="st3" x1="30.8" y1="11.7" x2="30.8" y2="29.7"/>
</g>
</svg>
