<svg xmlns="http://www.w3.org/2000/svg" version="1.1" viewBox="0 0 1380 920" height="920pt" width="1380pt">
<g id="#ffffffff">
</g>
<g id="#000000ff">
<path d="M 1134.70 109.72 C 1146.21 107.20 1157.56 103.68 1169.27 102.32 C 1171.80 112.75 1171.85 123.56 1172.90 134.19 C 1176.41 183.51 1178.80 232.92 1180.69 282.33 C 1195.28 279.59 1211.71 274.08 1218.91 259.94 C 1222.02 254.86 1221.74 247.63 1226.87 243.94 C 1232.23 241.99 1237.61 245.31 1242.29 247.68 C 1250.35 251.72 1258.46 257.49 1267.92 256.81 C 1273.36 256.67 1276.73 251.33 1277.66 246.49 C 1280.38 233.63 1276.38 220.73 1274.07 208.15 C 1274.56 208.18 1275.54 208.24 1276.03 208.27 C 1279.38 217.43 1280.52 227.31 1281.11 237.01 C 1280.97 242.86 1280.58 249.14 1277.19 254.14 C 1274.59 258.12 1269.60 259.94 1264.99 259.48 C 1251.69 258.70 1242.19 247.03 1229.10 245.73 C 1225.43 247.05 1225.15 251.55 1223.81 254.67 C 1221.14 263.85 1214.63 271.66 1206.29 276.27 C 1198.42 280.75 1189.60 283.32 1180.73 284.91 C 1183.11 339.59 1184.41 394.31 1185.31 449.02 C 1185.53 501.01 1186.50 553.06 1183.29 604.98 C 1180.01 650.26 1173.39 695.54 1159.95 739.00 C 1152.42 762.16 1143.82 785.43 1129.86 805.57 C 1094.95 788.94 1060.67 770.97 1026.99 751.99 C 1009.81 742.10 992.72 731.99 976.68 720.32 C 969.18 714.63 961.35 708.85 956.26 700.77 C 954.43 698.02 953.99 694.00 956.65 691.62 C 960.60 688.33 966.08 688.12 970.98 687.74 C 986.70 687.52 1002.29 690.81 1018.03 690.10 C 1021.71 689.71 1025.59 689.73 1029.00 688.08 C 1030.38 687.38 1031.99 685.86 1031.05 684.19 C 1028.75 678.81 1023.98 675.09 1019.79 671.22 C 1010.64 663.06 1000.62 655.73 992.80 646.21 C 989.75 642.21 986.52 637.31 987.71 632.04 C 989.31 626.49 995.06 623.79 1000.12 622.13 C 1010.37 618.49 1021.82 619.57 1031.68 614.69 C 1035.88 612.70 1039.65 608.80 1039.68 603.90 C 1039.72 596.31 1035.51 589.60 1031.62 583.39 C 1019.59 565.70 1004.39 550.49 991.82 533.21 C 986.71 526.28 982.12 518.79 979.81 510.42 C 978.64 505.34 978.74 499.47 982.33 495.34 C 987.64 488.87 996.26 486.72 1004.14 485.29 C 1019.97 482.81 1036.05 482.71 1052.01 481.72 C 1066.52 481.30 1081.01 480.47 1095.52 480.23 C 1105.02 479.58 1114.60 479.60 1124.01 477.98 C 1126.21 477.57 1128.30 476.72 1130.34 475.79 C 1127.78 471.55 1123.14 469.39 1119.04 466.95 C 1103.03 458.17 1086.23 450.97 1069.64 443.40 C 1055.94 437.50 1042.49 430.60 1030.95 421.05 C 1020.48 412.64 1011.48 402.02 1006.39 389.50 C 1000.91 376.34 1000.80 361.06 1005.97 347.78 C 1010.62 335.64 1018.96 325.15 1028.90 316.88 C 1048.36 300.68 1073.00 291.91 1097.76 288.01 C 1111.38 285.81 1125.22 285.31 1139.00 285.60 C 1152.13 285.71 1165.31 284.99 1178.28 282.84 C 1175.84 228.64 1173.72 174.39 1169.30 120.30 C 1168.76 115.18 1168.30 110.04 1167.41 104.97 C 1146.62 109.01 1126.15 114.55 1105.56 119.47 C 1019.44 140.81 933.50 162.88 847.54 184.86 C 854.93 231.43 859.66 278.37 864.30 325.28 C 867.44 361.81 871.11 398.32 872.90 434.95 C 872.29 436.88 871.54 438.77 870.89 440.68 C 868.29 396.33 864.27 352.06 860.05 307.82 C 857.49 282.54 854.84 257.26 851.62 232.05 C 849.78 215.63 846.98 199.32 844.99 182.93 C 941.49 158.23 1037.95 133.38 1134.70 109.72 M 1145.00 288.21 C 1130.91 288.24 1116.73 287.70 1102.75 289.84 C 1075.77 293.44 1048.61 302.69 1028.00 321.02 C 1016.20 331.66 1006.90 345.92 1005.03 361.96 C 1003.05 377.06 1008.56 392.34 1017.82 404.17 C 1030.71 420.67 1049.17 431.70 1068.12 439.94 C 1086.11 448.09 1104.28 455.93 1121.62 465.43 C 1125.42 467.90 1130.07 469.93 1132.20 474.17 C 1133.29 476.72 1130.65 478.74 1128.51 479.44 C 1121.76 481.53 1114.63 481.52 1107.67 482.18 C 1079.87 483.34 1052.04 484.00 1024.27 485.70 C 1013.51 486.50 1002.31 486.57 992.33 491.17 C 987.43 493.27 982.57 497.06 981.76 502.67 C 980.56 510.78 985.14 518.18 989.17 524.82 C 999.00 539.99 1011.48 553.16 1022.75 567.23 C 1029.02 575.13 1035.35 583.16 1039.60 592.38 C 1041.94 597.77 1043.64 604.24 1040.72 609.75 C 1037.57 615.59 1030.94 618.20 1024.88 619.81 C 1014.56 622.32 1003.11 621.87 993.92 627.87 C 990.66 629.80 989.15 633.87 990.54 637.44 C 992.89 643.56 997.82 648.14 1002.41 652.62 C 1011.04 661.02 1021.00 667.97 1029.19 676.82 C 1031.69 679.67 1034.80 683.35 1033.38 687.42 C 1031.05 691.17 1026.25 691.76 1022.27 692.30 C 1014.41 692.96 1006.49 692.67 998.65 691.98 C 986.89 691.20 974.95 688.80 963.23 691.27 C 960.54 691.82 956.54 693.49 957.44 696.92 C 959.13 703.00 964.57 706.93 968.98 711.04 C 984.00 723.45 1000.75 733.54 1017.44 743.51 C 1053.80 764.74 1091.24 784.03 1129.07 802.48 C 1146.20 775.60 1156.30 744.94 1164.22 714.27 C 1177.56 661.31 1182.10 606.54 1182.73 552.05 C 1183.23 527.04 1183.30 502.03 1183.27 477.01 C 1182.49 466.35 1182.93 455.66 1182.68 444.99 C 1181.98 391.78 1180.33 338.58 1178.35 285.40 C 1167.33 287.26 1156.15 287.85 1145.00 288.21 Z" opacity="1.00" fill="#000000"></path>
<path d="M 385.61 133.61 C 400.59 126.22 418.43 123.33 434.57 128.49 C 442.12 131.06 449.21 135.50 454.22 141.78 C 459.64 148.57 461.63 157.89 459.41 166.30 L 458.87 166.73 C 458.33 166.82 457.23 167.02 456.69 167.12 C 458.04 161.49 458.31 155.34 455.98 149.92 C 452.30 140.81 443.73 134.59 434.77 131.24 C 420.30 126.20 404.16 128.31 390.27 134.23 C 376.11 140.32 363.36 151.53 358.59 166.54 C 356.04 175.21 354.36 184.71 357.19 193.52 C 359.50 200.90 366.25 206.61 373.88 207.73 C 375.75 207.31 376.88 205.47 378.20 204.21 C 383.25 198.28 388.68 192.61 395.02 188.04 C 408.80 177.99 425.87 173.15 442.77 172.40 C 445.48 173.22 448.16 174.18 450.88 175.00 L 449.91 174.93 C 448.27 174.74 446.64 174.56 445.00 174.60 C 429.24 175.48 413.23 179.11 399.86 187.83 C 392.47 192.60 385.93 198.69 380.52 205.61 C 395.99 193.75 414.41 186.74 432.78 180.73 C 433.44 181.17 434.77 182.07 435.44 182.52 C 419.58 187.73 403.63 193.38 389.50 202.45 C 381.77 207.55 374.05 214.08 371.29 223.26 C 368.71 232.15 368.22 241.57 369.17 250.75 C 370.75 268.19 375.49 285.15 381.09 301.67 C 386.09 315.20 387.46 329.71 388.12 344.01 C 388.36 349.09 387.55 354.16 387.80 359.25 C 390.51 346.98 391.52 334.14 389.05 321.74 C 385.30 302.57 379.02 283.70 378.88 263.99 C 379.08 256.33 380.23 248.23 384.97 241.95 C 388.96 236.49 395.33 233.27 401.88 232.09 C 413.00 230.05 424.24 228.72 435.32 226.47 C 439.10 225.77 442.87 224.61 445.87 222.11 C 444.06 218.01 440.35 215.32 437.87 211.72 C 436.71 208.99 439.87 206.93 442.13 206.27 C 451.51 203.70 461.39 204.75 470.91 205.85 C 489.01 208.46 507.37 213.82 521.96 225.28 C 511.30 207.48 496.18 191.95 477.61 182.45 C 470.92 178.90 463.56 177.05 456.29 175.11 C 456.99 174.78 458.39 174.11 459.09 173.77 L 459.85 173.41 C 486.00 179.28 507.41 198.14 521.80 220.12 C 525.00 224.53 526.31 229.98 529.71 234.25 C 535.45 243.69 537.01 255.12 537.43 265.97 C 537.50 274.34 535.15 282.50 532.06 290.20 C 530.33 294.94 527.99 299.83 528.71 305.01 C 530.46 313.37 533.62 321.45 534.42 330.00 C 534.64 333.04 534.31 336.66 531.67 338.65 C 529.84 339.87 527.62 340.30 525.61 341.14 C 524.84 345.21 527.44 349.51 525.32 353.33 C 523.42 355.53 520.35 356.33 518.51 358.62 C 517.46 361.96 520.87 365.09 519.61 368.50 C 517.50 371.02 513.76 372.51 513.93 376.37 C 522.53 374.42 531.50 375.69 539.83 378.25 C 543.65 379.30 545.89 382.81 548.33 385.65 C 561.78 402.93 574.44 420.80 588.02 437.99 C 600.62 453.91 613.51 469.80 628.87 483.18 C 641.31 494.37 655.25 503.67 669.23 512.78 C 672.92 514.74 674.44 518.94 677.93 521.13 C 685.62 526.68 695.66 528.43 704.90 526.63 C 720.31 523.94 735.38 519.64 750.39 515.28 C 768.10 510.11 785.52 503.31 803.97 501.24 C 808.18 500.47 812.07 502.33 816.08 503.21 C 823.33 502.68 829.71 498.64 835.47 494.50 C 843.69 488.77 851.46 482.44 859.59 476.59 C 861.32 475.53 863.29 473.76 865.48 474.58 C 867.50 475.48 867.82 477.88 867.57 479.84 C 866.98 485.56 863.24 490.38 859.09 494.11 C 850.47 501.93 840.92 508.63 831.66 515.67 C 837.50 521.38 843.78 527.19 846.96 534.88 C 848.88 542.29 847.45 550.17 845.22 557.36 C 843.77 562.83 839.09 566.59 834.44 569.37 C 832.12 570.69 828.64 571.70 826.53 569.48 C 825.28 568.39 825.45 566.60 825.12 565.13 C 813.55 566.34 803.60 557.31 791.97 558.80 C 783.11 560.61 773.70 562.79 764.82 559.83 C 762.10 559.02 759.79 557.02 756.96 556.67 C 753.06 557.62 749.38 559.71 746.64 562.64 C 740.63 570.91 732.45 577.27 724.27 583.25 C 715.87 589.01 706.77 594.86 696.35 595.69 C 695.77 596.99 695.75 599.25 693.82 599.25 C 689.24 599.97 684.59 599.59 679.99 599.30 C 664.78 597.89 649.41 595.14 635.56 588.42 C 621.02 582.07 606.47 574.93 594.94 563.78 C 604.10 608.00 614.26 652.02 623.88 696.15 C 631.36 726.91 637.97 757.91 646.70 788.36 C 647.72 791.11 647.33 794.95 644.31 796.24 C 639.40 797.61 634.38 795.66 629.78 794.05 C 618.25 789.52 607.46 783.35 596.69 777.28 C 575.34 764.84 554.58 751.44 533.76 738.16 C 524.23 732.37 515.05 725.87 504.92 721.14 C 514.29 732.33 525.72 741.75 534.43 753.53 C 536.26 756.24 538.70 760.11 536.19 763.17 C 532.98 766.21 528.12 766.15 523.99 766.51 C 503.26 766.87 482.67 763.99 462.00 763.10 C 456.58 762.52 451.08 762.87 445.79 764.14 C 449.51 767.96 454.79 769.50 459.61 771.47 C 480.07 778.94 501.36 783.82 522.63 788.34 C 541.53 792.19 560.66 794.86 579.86 796.65 C 585.71 797.42 591.65 798.02 597.30 799.85 C 599.15 800.38 601.67 802.08 600.29 804.29 C 596.17 807.89 590.32 808.16 585.51 810.47 C 596.23 812.16 607.15 812.18 617.98 812.52 C 687.63 814.45 757.32 814.74 826.99 815.16 C 859.33 815.51 891.66 814.95 924.00 814.73 C 946.55 814.56 969.10 814.32 991.64 813.67 C 1020.12 813.03 1048.60 812.13 1077.01 809.97 C 1086.52 809.27 1096.04 808.32 1105.45 806.74 C 1109.19 806.09 1112.90 805.17 1116.34 803.52 C 1114.57 801.81 1112.31 800.79 1109.99 800.08 C 1088.55 792.67 1067.67 783.80 1046.61 775.41 C 1005.10 758.27 963.93 740.30 922.89 722.06 C 903.11 713.24 883.36 704.34 863.78 695.07 C 859.52 693.01 855.22 691.04 851.16 688.60 C 855.81 664.13 860.68 639.65 863.41 614.88 C 870.18 562.31 872.57 509.23 871.40 456.25 C 871.67 454.03 872.11 451.84 872.56 449.66 C 873.15 453.86 873.56 458.08 873.87 462.31 C 875.54 530.18 870.15 598.23 858.23 665.07 C 856.86 672.47 855.46 679.86 853.80 687.20 C 872.51 696.87 891.90 705.17 911.03 713.98 C 949.84 731.45 988.88 748.42 1028.12 764.94 C 1055.77 776.59 1083.54 788.01 1111.82 798.07 C 1114.26 799.09 1117.21 799.94 1118.58 802.43 C 1119.23 805.39 1115.74 806.66 1113.53 807.42 C 1103.28 810.37 1092.55 811.02 1081.99 812.12 C 1068.33 813.21 1054.66 814.04 1040.98 814.58 C 1028.98 814.63 1017.03 815.78 1005.03 815.81 C 990.70 816.49 976.35 816.48 962.01 816.74 C 909.68 817.85 857.34 817.61 805.01 817.58 C 774.67 817.42 744.33 817.31 714.00 816.75 C 676.64 816.41 639.28 815.87 601.95 814.50 C 596.49 814.33 591.02 813.92 585.63 813.07 C 583.76 812.83 582.05 811.80 581.31 810.03 C 586.33 806.29 592.89 806.02 598.27 802.99 C 591.60 800.22 584.29 799.88 577.22 798.87 C 560.18 797.33 543.18 794.99 526.42 791.47 C 505.08 787.58 483.95 782.35 463.35 775.52 C 457.04 773.14 450.31 771.20 444.94 767.00 C 442.75 765.68 443.14 762.39 445.62 761.69 C 451.85 759.69 458.54 760.64 464.98 760.63 C 481.32 761.67 497.61 763.46 513.99 763.89 C 519.25 764.31 524.55 764.13 529.77 763.39 C 531.59 763.13 533.53 762.53 534.67 760.98 C 534.79 757.91 532.65 755.41 530.94 753.08 C 522.59 742.81 512.74 733.89 503.87 724.09 C 502.65 722.49 500.60 720.68 501.45 718.45 C 503.67 716.88 506.15 719.00 508.28 719.81 C 523.59 728.15 538.01 738.01 552.77 747.25 C 570.40 758.43 588.04 769.60 606.28 779.76 C 615.03 784.59 623.90 789.34 633.38 792.59 C 637.01 793.73 641.08 795.27 644.70 793.19 C 644.65 791.80 644.51 790.42 644.29 789.07 C 634.91 756.15 627.59 722.67 619.94 689.32 C 610.53 648.33 601.62 607.24 592.76 566.13 C 592.72 564.85 591.65 563.34 592.49 562.20 C 593.18 561.35 593.92 560.55 594.66 559.74 C 605.50 571.24 619.73 578.68 634.05 584.94 C 651.73 593.72 671.72 597.02 691.32 597.13 C 686.68 595.38 681.95 593.17 679.00 589.00 C 673.83 582.05 673.86 572.83 674.72 564.60 C 675.97 554.64 678.00 543.82 685.66 536.64 C 689.14 533.67 693.59 530.58 698.42 531.81 C 696.80 536.36 692.08 538.61 689.51 542.53 C 682.96 550.08 682.97 560.66 683.29 570.08 C 683.81 577.32 684.79 585.45 690.19 590.82 C 695.39 595.26 702.50 592.17 707.96 589.93 C 720.26 584.02 731.27 575.53 740.82 565.84 C 744.56 560.55 749.56 555.44 756.30 554.53 C 760.33 553.88 763.23 557.50 767.04 558.12 C 774.77 559.47 782.68 558.37 790.24 556.53 C 800.75 554.52 810.17 560.74 820.16 562.60 C 824.04 563.59 829.39 560.56 828.44 556.12 C 825.33 549.77 817.67 547.81 811.24 546.92 C 806.68 546.22 801.70 545.96 797.85 543.18 C 795.84 541.86 795.77 538.93 797.13 537.14 C 800.00 533.18 804.27 530.36 808.86 528.80 C 812.47 527.49 816.26 528.84 819.96 528.52 C 823.02 528.74 826.97 528.14 828.98 531.05 C 833.01 536.45 834.14 543.47 834.54 550.04 C 835.08 556.30 829.13 560.31 827.72 566.02 C 827.62 568.10 830.13 568.88 831.66 567.84 C 836.92 565.42 841.99 561.19 843.24 555.26 C 844.98 548.66 846.58 541.39 844.19 534.75 C 840.44 527.01 833.59 521.50 827.87 515.29 C 838.15 507.46 848.79 500.06 858.37 491.37 C 862.49 487.62 865.38 482.37 865.23 476.68 C 863.21 477.31 861.37 478.36 859.71 479.64 C 850.67 486.29 841.96 493.39 832.58 499.56 C 828.13 502.50 823.14 504.80 817.84 505.63 C 813.39 506.31 809.48 502.94 805.03 503.67 C 789.55 505.32 774.70 510.37 759.93 515.04 C 745.13 519.60 730.22 523.83 715.11 527.23 C 706.60 529.11 697.70 530.90 689.04 528.83 C 683.74 527.74 678.89 525.16 674.60 521.92 C 671.54 533.33 669.90 545.10 666.16 556.33 C 665.00 559.54 663.77 562.87 661.44 565.45 C 659.42 567.79 654.87 567.36 653.72 564.31 C 652.13 559.10 653.95 553.63 655.74 548.71 C 659.88 537.89 665.59 527.72 671.76 517.94 C 666.01 513.33 659.59 509.67 653.56 505.46 C 636.49 493.92 620.63 480.49 607.06 464.96 C 587.97 443.45 571.16 420.07 553.90 397.11 C 550.14 392.20 546.54 387.14 542.33 382.61 C 540.79 380.92 538.46 380.44 536.36 379.85 C 529.27 378.19 521.81 376.98 514.63 378.88 C 514.87 383.57 514.16 389.08 509.84 391.84 C 503.12 396.07 494.76 395.87 487.11 395.56 C 487.08 395.01 487.02 393.90 486.99 393.35 C 493.46 392.63 500.57 392.16 505.78 387.80 C 508.70 385.55 508.50 381.47 510.70 378.73 C 512.39 376.73 511.21 373.79 512.56 371.62 C 514.00 369.82 515.98 368.59 517.71 367.12 C 516.93 364.46 515.51 361.87 515.61 359.04 C 516.66 355.36 520.62 354.07 523.31 351.87 C 524.49 348.14 521.78 344.16 523.48 340.55 C 525.05 336.90 531.38 338.37 531.66 333.82 C 532.57 323.88 527.63 314.66 526.27 305.00 C 525.44 297.99 528.99 291.64 531.20 285.24 C 533.93 278.15 535.05 270.51 535.21 262.95 C 534.12 254.42 532.68 245.74 529.00 237.90 C 527.81 235.88 526.69 233.65 524.80 232.21 C 506.65 232.02 488.15 228.78 470.26 233.28 C 464.92 234.72 458.62 237.87 458.03 244.07 C 457.33 251.80 455.95 259.88 451.29 266.30 C 448.01 270.90 442.56 273.87 436.88 273.84 C 433.59 274.11 430.44 272.79 427.20 272.81 C 425.76 274.91 425.43 277.49 425.43 279.98 C 425.28 290.27 427.53 300.51 426.56 310.81 C 426.27 313.64 424.95 317.26 421.75 317.73 C 418.62 318.34 415.77 316.29 414.35 313.64 C 408.73 303.74 408.82 291.34 401.93 282.07 C 399.55 278.49 392.74 277.62 391.03 282.23 C 389.89 285.70 390.42 289.46 390.91 293.01 C 393.33 306.44 398.57 319.13 401.78 332.35 C 403.88 340.45 401.10 348.72 398.21 356.25 C 393.03 368.63 386.03 380.16 378.36 391.14 C 394.41 403.68 411.86 414.89 431.19 421.64 C 443.23 425.73 457.42 427.54 468.90 420.89 C 477.66 415.65 480.38 404.53 479.35 394.97 C 478.52 393.54 476.67 393.33 475.30 392.67 C 463.16 388.54 450.55 385.94 438.44 381.68 C 436.32 381.02 434.49 379.73 433.16 377.96 C 437.16 374.37 442.99 375.82 447.78 376.51 C 460.48 379.24 472.33 385.01 483.49 391.51 C 485.26 392.26 485.58 394.28 486.05 395.92 C 488.09 404.74 487.86 414.81 482.40 422.41 C 477.25 429.69 468.46 433.28 459.92 434.67 C 445.16 437.33 430.12 433.41 416.64 427.47 C 400.56 420.15 385.86 409.98 372.70 398.25 C 371.71 397.56 370.60 395.81 369.24 396.83 C 351.39 404.92 334.81 415.55 318.79 426.79 C 311.56 432.14 303.44 436.84 298.54 444.66 C 307.65 440.05 318.70 441.57 327.17 446.86 C 337.31 453.00 343.52 463.76 347.58 474.58 C 354.44 493.90 355.97 514.65 355.69 535.01 C 355.52 548.69 354.26 562.35 351.88 575.83 C 350.26 585.07 347.50 594.05 345.27 603.15 C 342.06 615.92 338.78 628.68 335.27 641.37 C 333.38 648.13 331.89 655.16 328.38 661.32 C 327.57 662.95 325.56 662.92 324.02 663.15 C 306.72 664.46 289.37 666.12 272.00 665.20 C 267.56 664.66 262.79 664.60 258.84 662.24 C 257.23 661.22 255.95 659.09 256.95 657.24 C 259.29 652.33 265.01 650.80 269.89 649.78 C 285.13 647.20 300.65 648.75 316.01 648.36 C 319.69 648.21 323.57 648.27 326.90 646.46 C 323.77 643.00 319.56 640.92 316.01 637.99 C 305.42 629.23 296.62 618.55 288.45 607.56 C 281.77 598.26 275.45 588.59 271.04 577.99 C 269.70 574.42 268.33 570.36 269.59 566.60 C 271.73 562.69 277.05 564.37 280.25 565.86 C 291.71 571.74 302.86 578.33 314.90 583.01 C 318.40 584.22 322.13 585.85 325.89 584.76 C 325.32 579.43 321.62 575.31 319.25 570.72 C 309.82 553.47 302.16 535.22 296.45 516.40 C 290.73 495.91 286.07 473.92 291.99 452.91 C 279.08 466.77 272.57 485.08 266.87 502.80 C 255.21 541.22 249.69 581.17 245.42 621.00 C 242.30 646.44 242.42 672.41 247.31 697.63 C 250.46 713.21 254.37 729.20 263.61 742.40 C 266.03 746.12 270.05 748.40 274.54 747.89 C 274.00 746.00 273.03 744.03 273.84 742.07 C 275.87 734.75 279.93 728.22 283.67 721.69 C 292.46 707.13 302.25 693.17 313.01 680.01 C 317.82 674.56 322.38 668.55 328.77 664.86 C 334.64 663.00 340.93 663.95 346.99 663.78 C 386.78 664.56 425.79 655.17 464.03 645.19 C 488.22 638.72 512.20 631.38 535.66 622.59 C 542.53 620.13 549.14 616.66 556.48 615.78 C 568.65 614.38 580.96 615.75 592.90 618.21 C 595.99 618.53 597.43 621.70 598.73 624.12 C 601.95 631.32 604.07 639.13 604.29 647.04 C 604.49 650.37 603.11 653.71 600.01 655.22 C 605.26 659.92 610.80 665.19 612.45 672.32 C 613.41 676.25 611.91 680.90 607.99 682.57 C 601.30 680.61 595.66 676.13 589.59 672.81 C 589.95 676.40 590.02 680.04 589.32 683.61 C 588.33 687.06 591.63 690.36 589.93 693.78 C 588.83 697.27 584.71 698.46 581.50 697.36 C 571.51 694.42 563.11 687.40 552.78 685.41 C 541.72 684.15 530.96 687.97 519.97 688.39 C 510.59 688.86 501.33 686.16 491.95 686.93 C 476.34 688.17 462.30 695.65 447.83 700.92 C 425.93 709.81 403.84 718.30 381.23 725.24 C 362.92 730.85 344.24 735.83 325.08 737.37 C 324.71 749.63 324.32 761.89 323.00 774.09 C 321.79 784.19 320.72 794.49 316.94 804.02 C 315.54 808.04 310.79 808.72 307.16 809.39 C 297.46 810.29 287.67 809.78 277.95 809.35 C 243.29 806.77 208.78 802.30 174.06 800.57 C 153.84 799.82 133.34 799.03 113.39 803.08 C 108.42 803.94 103.82 806.08 98.98 807.42 C 99.07 806.88 99.23 805.80 99.32 805.26 C 104.96 802.00 111.54 800.85 117.87 799.65 C 136.10 796.85 154.64 797.14 173.01 798.02 C 210.79 799.73 248.29 805.03 286.02 807.31 C 294.28 807.36 302.75 808.23 310.82 806.01 C 315.03 805.10 315.55 800.19 316.69 796.78 C 321.09 778.26 321.90 759.10 322.45 740.13 C 307.99 744.27 293.33 749.00 278.13 748.82 C 275.79 749.46 273.49 750.62 271.01 750.33 C 267.38 750.03 264.39 747.57 262.25 744.79 C 256.70 737.70 253.38 729.18 250.63 720.69 C 243.05 697.64 240.48 673.18 240.78 649.00 C 241.60 627.87 244.33 606.87 247.06 585.92 C 249.69 565.83 253.64 545.95 257.95 526.17 C 262.72 506.47 268.33 486.75 277.73 468.70 C 281.61 461.58 286.15 454.66 292.30 449.29 C 294.63 447.45 295.67 444.61 297.29 442.23 C 299.96 438.02 303.64 434.55 307.69 431.68 C 327.61 417.08 348.28 403.10 371.06 393.32 C 380.08 401.64 389.61 409.51 400.21 415.76 C 416.84 426.04 436.01 434.53 456.02 432.64 C 464.96 431.71 474.61 428.71 480.15 421.16 C 484.89 414.81 485.34 406.42 484.11 398.87 C 483.72 396.81 483.17 394.74 481.91 393.04 C 481.67 398.76 482.39 404.71 480.29 410.19 C 477.91 417.81 471.46 423.80 463.82 425.96 C 450.19 430.15 435.63 426.60 422.86 421.23 C 405.60 413.77 389.65 403.44 375.05 391.66 C 383.95 378.48 392.75 364.95 397.87 349.78 C 399.86 344.04 400.65 337.71 399.04 331.79 C 395.83 319.46 391.18 307.53 388.71 295.01 C 387.96 290.31 387.08 285.31 388.89 280.74 C 390.21 277.65 393.75 276.04 396.99 276.54 C 400.94 276.84 403.97 279.90 405.80 283.18 C 410.48 291.44 411.50 301.10 415.20 309.75 C 416.24 311.99 417.60 314.55 420.07 315.40 C 423.07 315.87 423.86 312.26 424.17 310.02 C 425.16 298.98 422.04 287.98 423.12 276.96 C 423.29 273.91 425.08 269.60 428.83 270.34 C 433.73 271.27 439.11 272.26 443.69 269.62 C 450.74 265.76 453.58 257.49 454.77 250.00 C 455.58 246.14 454.96 241.80 457.39 238.44 C 461.07 233.17 467.58 231.07 473.60 229.89 C 489.82 226.97 506.31 229.20 522.63 229.61 C 515.36 222.47 506.02 217.88 496.50 214.51 C 483.48 210.07 469.76 207.45 455.99 207.30 C 450.52 207.33 444.69 207.27 439.83 210.16 C 442.30 213.90 446.78 216.44 447.78 221.04 C 448.34 225.04 443.87 226.85 440.75 227.73 C 427.40 231.21 413.56 232.22 400.08 235.08 C 392.88 236.79 386.52 241.94 383.98 248.98 C 379.86 260.00 381.42 272.11 383.33 283.43 C 385.69 297.56 389.94 311.30 392.25 325.43 C 393.61 337.84 392.72 350.49 389.60 362.58 C 388.28 366.94 387.59 371.95 383.95 375.10 C 381.91 372.55 383.39 369.49 383.88 366.70 C 385.83 357.28 385.79 347.60 385.32 338.04 C 384.46 326.73 383.16 315.31 379.38 304.55 C 372.39 283.72 366.03 262.14 366.31 239.96 C 366.59 229.53 368.28 218.05 376.07 210.40 C 366.77 210.26 358.04 203.79 355.01 195.02 C 351.79 185.63 353.36 175.38 356.09 166.07 C 360.55 151.55 372.22 140.20 385.61 133.61 M 437.53 378.39 C 442.25 380.74 447.46 381.81 452.47 383.39 C 460.06 385.38 467.56 387.71 475.12 389.82 C 470.11 386.92 464.76 384.69 459.39 382.57 C 452.42 380.00 445.05 377.76 437.53 378.39 M 506.66 391.10 C 510.08 389.13 512.34 385.65 512.14 381.62 C 510.82 385.06 508.95 388.22 506.66 391.10 M 296.34 449.45 C 292.92 456.42 292.08 464.35 291.74 472.02 C 291.60 489.33 295.66 506.37 301.12 522.70 C 306.57 538.82 313.26 554.55 321.47 569.47 C 323.80 573.93 327.24 577.96 328.24 583.02 C 328.67 584.73 327.61 586.37 326.27 587.34 C 321.74 588.41 317.25 586.58 313.08 585.02 C 304.01 581.37 295.35 576.79 286.75 572.16 C 282.68 570.01 278.71 567.28 274.06 566.62 C 272.14 566.23 271.28 568.49 271.56 570.03 C 272.20 575.60 274.94 580.64 277.43 585.58 C 283.32 596.32 290.39 606.41 298.13 615.90 C 305.63 625.01 313.76 633.80 323.61 640.43 C 326.24 642.09 328.68 644.41 328.93 647.71 C 326.20 649.58 322.98 650.67 319.66 650.71 C 307.78 651.16 295.88 650.44 284.00 650.91 C 277.07 651.40 269.85 651.50 263.41 654.41 C 261.25 655.27 259.91 657.21 258.72 659.11 C 262.38 661.77 267.02 662.25 271.40 662.60 C 289.50 663.44 307.59 662.06 325.60 660.40 C 327.08 659.07 327.69 657.08 328.45 655.31 C 333.25 642.01 336.26 628.18 339.76 614.51 C 343.83 597.48 349.35 580.71 351.22 563.22 C 354.14 538.49 354.40 513.16 349.07 488.73 C 345.89 475.02 340.57 460.81 329.44 451.56 C 320.39 444.06 305.82 441.16 296.34 449.45 M 658.79 547.85 C 657.24 552.07 655.39 556.40 655.53 560.98 C 655.29 562.81 656.81 563.93 657.94 565.10 C 660.45 563.04 662.13 560.21 663.15 557.16 C 667.08 546.20 668.88 534.65 671.50 523.34 C 666.54 531.10 662.33 539.35 658.79 547.85 M 798.20 540.14 C 799.70 541.25 801.29 542.25 802.93 543.17 C 805.29 537.96 809.51 534.04 813.74 530.35 C 807.45 531.13 801.44 534.61 798.20 540.14 M 819.18 531.19 C 819.76 531.78 819.76 531.78 819.18 531.19 M 816.68 542.98 C 817.29 545.78 820.94 546.30 823.14 547.58 C 825.36 545.29 828.38 542.73 827.93 539.17 C 827.77 536.06 825.67 533.62 823.64 531.48 C 820.02 534.32 817.72 538.55 816.68 542.98 M 805.74 543.33 C 811.99 543.88 815.58 537.21 816.65 531.98 C 811.98 534.56 808.18 538.59 805.74 543.33 M 678.74 555.82 C 676.93 565.23 675.18 575.55 679.31 584.61 C 681.17 588.94 685.17 591.71 689.21 593.81 C 682.04 586.51 680.67 575.76 680.58 565.99 C 680.66 558.34 681.18 550.14 685.57 543.59 C 687.52 540.38 690.40 537.91 692.63 534.92 C 684.62 538.82 680.32 547.41 678.74 555.82 M 825.63 548.87 C 827.80 550.67 829.59 552.85 831.23 555.15 C 832.49 550.62 831.73 545.90 830.98 541.36 C 829.48 544.06 827.77 546.63 825.63 548.87 M 813.05 543.25 C 811.47 546.29 816.41 543.34 813.05 543.25 M 544.20 622.02 C 508.54 635.96 471.62 646.45 434.38 655.19 C 411.90 660.44 389.10 664.71 366.01 665.91 C 355.09 666.87 344.12 665.95 333.19 666.49 C 329.85 666.44 327.19 668.71 324.92 670.88 C 317.58 677.98 311.25 686.03 305.18 694.21 C 295.78 707.09 286.73 720.33 279.51 734.58 C 278.00 738.18 275.32 741.96 276.61 746.04 C 280.11 742.99 283.55 739.64 288.05 738.11 C 301.95 732.95 317.00 736.02 331.38 734.23 C 350.77 731.76 369.62 726.33 388.19 720.40 C 407.47 714.07 426.47 706.89 445.33 699.43 C 458.76 694.15 471.89 687.61 486.20 685.07 C 495.76 683.35 505.40 685.19 514.96 685.79 C 527.45 686.62 539.53 681.67 552.02 682.71 C 561.33 684.12 569.27 689.55 577.72 693.32 C 580.01 694.20 582.38 695.40 584.91 695.19 C 588.56 694.38 588.63 688.93 586.02 687.01 C 576.64 682.36 567.93 676.41 559.88 669.75 C 560.03 669.09 560.32 667.78 560.47 667.12 C 570.53 670.04 579.43 676.17 587.07 683.22 C 587.32 679.13 588.12 674.47 586.15 670.77 C 579.48 665.91 571.93 662.06 566.37 655.83 C 566.42 655.23 566.51 654.03 566.56 653.43 C 568.23 653.17 569.97 652.54 571.61 653.32 C 577.07 655.29 581.65 659.19 585.48 663.48 C 587.62 665.74 588.17 669.34 591.17 670.78 C 596.70 674.01 602.09 677.54 607.97 680.14 C 612.21 675.55 609.32 669.19 606.01 665.02 C 596.90 653.85 584.05 646.73 571.63 639.87 C 574.95 633.88 583.15 633.11 589.07 634.94 C 595.64 638.40 595.71 646.89 599.14 652.71 C 600.12 651.84 601.44 651.05 601.47 649.58 C 602.30 642.79 600.34 636.02 598.24 629.63 C 596.97 626.58 595.99 622.97 593.24 620.93 C 577.22 617.68 559.65 615.08 544.20 622.02 M 575.09 638.97 C 582.21 642.65 589.02 646.89 595.58 651.50 C 593.66 646.90 592.95 641.36 589.07 637.89 C 584.80 635.23 579.21 636.64 575.09 638.97 M 569.35 655.25 C 573.82 659.58 579.04 663.14 584.40 666.29 C 580.55 661.34 575.40 657.10 569.35 655.25 M 569.72 673.96 C 573.28 676.96 577.32 679.35 581.33 681.70 C 577.91 678.52 574.00 675.85 569.72 673.96 M 280.31 746.30 C 294.41 745.96 308.09 741.72 321.51 737.70 C 316.06 737.39 310.59 737.33 305.13 737.56 C 296.32 738.04 286.59 739.42 280.31 746.30 Z" opacity="1.00" fill="#000000"></path>
<path d="M 556.76 447.02 C 556.82 443.87 555.74 440.12 558.00 437.50 C 560.58 437.19 561.27 440.11 562.02 441.98 C 564.91 451.16 565.97 460.78 567.48 470.25 C 569.68 484.25 570.76 498.45 573.96 512.27 C 578.45 497.82 580.00 482.54 585.46 468.37 C 586.52 466.02 587.67 463.17 590.30 462.23 C 593.19 461.61 595.09 464.76 595.54 467.20 C 596.36 473.18 595.31 479.21 594.18 485.07 C 591.46 499.24 587.96 513.45 588.37 527.99 C 588.23 534.34 589.95 540.50 591.17 546.68 C 590.61 547.06 589.49 547.80 588.93 548.17 C 587.57 541.85 586.07 535.51 585.83 529.02 C 585.33 513.67 589.00 498.65 591.86 483.68 C 592.80 477.21 595.26 469.82 591.13 463.96 C 586.85 469.32 585.48 476.19 583.74 482.65 C 581.14 492.55 579.51 502.69 576.63 512.51 C 576.21 514.60 574.37 515.77 572.77 516.95 C 576.72 529.71 581.36 542.49 589.35 553.35 C 589.10 554.17 588.83 555.00 588.57 555.83 C 577.90 543.53 573.33 527.43 568.87 512.11 C 563.27 490.75 558.78 469.03 556.76 447.02 M 559.27 442.13 C 559.08 445.66 559.44 449.19 559.81 452.69 C 561.94 470.35 565.38 487.83 569.58 505.11 C 569.47 501.24 568.72 497.45 568.22 493.64 C 565.87 478.34 564.30 462.90 561.05 447.75 C 560.63 445.82 560.05 443.93 559.27 442.13 Z" opacity="1.00" fill="#000000"></path>
</g>
<g id="#303030ff">
<path d="M 456.69 167.12 C 457.23 167.02 458.33 166.82 458.87 166.73 C 458.48 168.74 457.72 170.66 456.95 172.56 C 457.49 172.86 458.56 173.47 459.09 173.77 C 458.39 174.11 456.99 174.78 456.29 175.11 C 449.71 178.54 442.52 180.45 435.44 182.52 C 434.77 182.07 433.44 181.17 432.78 180.73 C 438.52 178.90 444.41 177.46 449.91 174.93 L 450.88 175.00 C 448.16 174.18 445.48 173.22 442.77 172.40 C 446.43 172.22 450.10 172.30 453.76 172.46 C 454.72 170.67 455.69 168.89 456.69 167.12 Z" opacity="1.00" fill="#303030"></path>
<path d="M 872.90 434.95 C 873.73 444.03 873.73 453.19 873.87 462.31 C 873.56 458.08 873.15 453.86 872.56 449.66 C 872.11 451.84 871.67 454.03 871.40 456.25 C 870.91 451.08 870.64 445.87 870.89 440.68 C 871.54 438.77 872.29 436.88 872.90 434.95 Z" opacity="1.00" fill="#303030"></path>
</g>
<g id="#fcfcfcff">
</g>
<g id="#fefefeff">
</g>
<g id="#fafafaff">
</g>
<g id="#fdfdfdff">
</g>
<g id="#aaaaaaff">
<path d="M 819.18 531.19 C 819.76 531.78 819.76 531.78 819.18 531.19 Z" opacity="1.00" fill="#aaaaaa"></path>
</g>
<g id="#d0d0d0ff">
</g>
<g id="#343434ff">
<path d="M 588.93 548.17 C 589.49 547.80 590.61 547.06 591.17 546.68 C 592.15 551.08 592.79 555.60 594.66 559.74 C 593.92 560.55 593.18 561.35 592.49 562.20 C 591.30 560.08 589.97 558.07 588.45 556.19 L 588.57 555.83 C 588.83 555.00 589.10 554.17 589.35 553.35 C 589.51 551.61 589.24 549.87 588.93 548.17 Z" opacity="1.00" fill="#343434"></path>
</g>
</svg>
