<svg xmlns="http://www.w3.org/2000/svg" version="1.1" viewBox="0 0 905 772" height="772pt" width="905pt">
<g id="#ffffffff">
</g>
<g id="#000000ff">
<path d="M 209.81 47.98 C 212.74 48.97 215.51 50.37 218.28 51.74 C 291.80 88.20 365.42 124.42 438.94 160.87 C 438.36 166.83 437.72 172.80 436.49 178.67 C 410.02 166.57 383.84 153.83 357.46 141.52 C 317.21 122.43 276.86 103.52 236.63 84.39 C 235.86 131.26 234.80 178.13 234.07 225.00 C 233.32 243.32 233.63 261.67 232.94 279.99 C 232.03 327.68 231.17 375.36 230.21 423.05 C 229.39 442.86 229.69 462.71 229.05 482.53 C 228.48 495.23 228.83 507.97 228.06 520.67 C 227.50 520.25 226.39 519.41 225.83 518.99 C 223.10 507.91 220.60 496.63 215.72 486.25 C 214.65 483.82 213.02 481.70 210.97 480.03 C 206.99 483.09 207.02 488.43 206.78 492.97 C 206.97 500.72 208.25 508.38 209.39 516.04 C 209.97 519.67 209.20 523.31 208.09 526.76 C 213.58 524.62 219.02 521.64 225.01 521.40 C 228.14 521.01 229.29 524.48 229.98 526.88 C 233.41 539.88 235.69 553.56 242.83 565.21 C 246.08 570.84 252.44 573.34 258.07 575.91 C 278.03 584.01 299.19 588.62 320.30 592.55 C 354.19 598.40 388.67 601.55 423.07 600.16 C 424.89 600.26 425.46 598.14 425.90 596.77 C 429.16 583.86 428.30 570.19 432.41 557.46 C 433.82 553.01 436.78 548.04 441.96 547.69 C 449.73 547.12 457.46 548.59 465.09 549.89 C 483.05 553.47 500.95 558.38 517.39 566.59 C 523.10 569.76 529.54 573.25 532.25 579.53 C 533.71 586.00 532.30 592.70 531.11 599.11 C 527.07 617.58 520.46 635.42 512.47 652.54 C 507.08 663.99 500.79 675.07 493.26 685.27 C 485.71 695.57 476.49 705.42 464.33 710.14 C 456.84 712.55 448.81 712.41 441.02 712.32 C 419.85 711.43 398.99 707.04 378.65 701.29 C 355.95 694.73 333.64 686.41 312.85 675.09 C 299.93 668.14 288.67 658.64 276.59 650.41 C 265.31 642.49 253.98 634.48 241.57 628.39 C 235.24 625.40 228.36 622.74 221.23 623.34 C 214.91 623.95 208.31 624.90 203.03 628.71 C 210.45 628.32 217.15 624.27 224.60 624.23 C 224.94 648.49 221.97 672.81 224.20 697.05 C 224.56 700.90 224.86 704.86 226.48 708.43 C 227.27 710.67 230.16 710.35 232.05 710.91 C 247.60 712.95 263.27 713.71 278.92 714.54 C 292.92 715.69 306.99 715.65 321.02 716.36 C 376.66 718.29 432.32 719.47 488.00 719.79 C 541.55 719.78 595.17 720.54 648.65 717.27 C 657.46 716.19 666.70 716.47 674.97 712.86 C 669.92 710.70 664.33 711.34 658.99 711.15 C 627.24 711.29 595.67 715.20 563.97 716.53 C 559.97 716.48 555.60 717.35 552.05 715.01 C 554.35 711.98 558.41 711.61 561.26 709.31 C 567.53 704.60 572.52 698.45 577.40 692.37 C 589.19 677.10 599.29 660.62 608.89 643.92 C 629.29 607.74 647.16 570.02 660.70 530.72 C 666.19 513.57 671.23 496.05 672.31 477.98 C 672.50 474.96 672.22 471.93 671.16 469.09 C 665.71 472.35 662.65 478.12 659.16 483.19 C 638.94 515.10 623.03 549.80 599.72 579.71 C 595.57 584.18 591.72 589.74 585.65 591.64 C 582.07 592.74 579.64 588.89 579.54 585.79 C 578.66 574.48 581.48 563.34 583.47 552.29 C 585.27 542.15 588.33 532.12 588.42 521.77 C 584.22 526.59 581.01 532.15 577.29 537.34 C 568.85 549.39 560.23 561.39 550.18 572.17 C 547.17 575.22 544.16 578.47 540.29 580.43 C 538.27 581.49 535.07 581.05 534.47 578.53 C 533.85 575.22 534.27 571.83 534.77 568.54 C 539.26 543.56 543.65 518.45 544.76 493.04 C 545.63 478.71 545.50 464.22 542.79 450.08 C 540.51 437.65 536.40 424.86 527.34 415.65 C 521.97 410.36 514.84 406.09 507.10 406.15 C 504.45 405.96 502.42 407.99 500.35 409.32 C 487.56 418.80 478.78 432.51 471.22 446.27 C 455.72 475.27 446.07 506.84 435.97 537.99 C 434.52 541.76 433.81 546.40 429.97 548.57 C 428.62 545.93 428.37 542.98 428.93 540.11 C 431.61 521.37 437.37 503.24 443.59 485.41 C 451.15 464.91 459.93 444.56 472.77 426.74 C 480.08 417.03 489.08 407.10 501.41 404.27 C 506.09 403.62 510.13 400.90 514.78 400.10 C 527.24 397.76 539.79 395.78 552.41 394.54 C 551.22 387.81 556.95 382.57 561.44 378.43 C 563.93 376.84 564.14 373.71 564.33 371.04 C 564.48 368.27 562.24 366.32 560.49 364.51 C 555.85 359.99 550.87 355.20 549.02 348.79 C 547.73 344.62 548.92 339.99 551.57 336.61 C 563.56 322.29 566.06 303.00 575.00 287.02 C 578.71 280.33 584.50 275.17 589.97 269.96 C 599.31 261.56 609.20 253.79 619.27 246.30 C 620.58 245.56 621.00 244.10 621.60 242.81 C 613.86 245.07 606.96 249.66 600.90 254.88 C 597.62 257.56 595.23 261.10 592.12 263.95 C 587.87 261.19 586.45 256.15 584.35 251.84 C 578.11 238.35 573.33 224.25 568.58 210.17 C 567.34 206.54 569.32 202.94 570.68 199.65 C 572.96 194.50 575.60 188.88 574.28 183.11 C 571.39 174.73 564.82 168.14 562.15 159.67 C 561.39 157.78 562.17 155.81 562.45 153.92 C 556.47 152.44 550.35 151.35 544.25 150.68 C 541.38 152.61 539.24 155.43 536.27 157.21 C 534.13 158.46 531.92 159.60 529.88 161.01 C 535.89 165.28 543.83 163.58 550.48 161.97 C 552.91 171.91 558.35 180.74 561.45 190.43 C 562.10 196.09 561.53 201.88 562.95 207.48 C 564.68 208.57 567.19 208.96 568.02 211.09 C 569.98 215.79 569.80 221.00 569.83 226.00 C 569.72 229.67 569.79 233.55 568.02 236.89 C 565.45 238.84 562.01 238.55 559.00 239.13 C 545.21 240.45 531.27 241.57 517.44 240.37 C 514.82 231.00 515.52 221.00 516.64 211.44 C 522.88 206.63 531.22 206.99 538.60 205.44 C 539.12 202.04 539.43 198.62 539.89 195.22 C 536.02 196.38 531.78 194.66 529.86 191.11 C 528.94 189.52 529.97 187.81 530.56 186.32 C 528.57 185.73 525.95 185.83 524.87 183.72 C 523.29 181.07 525.46 178.38 527.20 176.50 C 523.22 175.82 518.64 175.35 515.75 172.21 C 514.52 170.46 515.75 168.32 517.56 167.64 C 519.82 166.80 522.24 166.56 524.58 165.96 C 521.22 164.52 517.19 166.08 514.09 163.88 C 511.92 162.57 511.55 159.21 513.40 157.48 C 515.70 154.85 519.30 154.31 522.47 153.35 C 524.68 152.32 526.62 150.79 528.76 149.62 C 525.52 149.49 521.70 150.06 519.73 146.85 C 519.55 148.70 519.38 150.55 519.20 152.39 C 514.03 152.60 508.86 152.35 503.71 152.15 C 503.60 150.39 503.51 148.62 503.47 146.85 C 497.84 146.54 492.19 146.40 486.58 145.70 C 486.19 141.84 485.89 137.97 485.53 134.10 C 485.10 135.31 484.69 136.53 484.30 137.75 C 473.07 137.26 461.85 136.66 450.63 136.20 C 450.96 134.53 451.32 132.87 451.70 131.22 C 462.01 130.83 472.32 131.69 482.63 131.94 C 482.77 130.01 482.96 128.09 483.23 126.17 C 490.73 126.19 498.28 125.82 505.76 126.58 L 506.34 127.22 C 506.83 133.40 505.43 139.63 506.52 145.79 C 508.23 138.92 507.72 131.68 509.50 124.81 C 512.37 124.64 515.26 124.65 518.14 124.81 C 518.88 124.11 519.17 122.52 520.44 122.64 C 532.77 122.05 545.13 121.96 557.48 122.25 C 563.80 122.61 570.30 122.66 576.36 124.70 C 581.34 126.30 583.33 131.76 584.14 136.46 C 585.13 143.14 585.20 150.17 582.99 156.63 C 577.49 155.19 571.83 154.41 566.14 154.76 C 571.67 164.13 577.01 173.66 583.73 182.24 C 596.99 201.01 609.03 220.60 621.56 239.86 C 638.11 233.80 656.66 234.84 673.01 241.04 C 684.98 245.46 695.78 253.52 702.51 264.45 C 711.84 279.55 713.90 298.51 709.72 315.60 C 707.37 325.84 700.66 334.23 694.20 342.22 C 686.83 350.97 678.88 359.24 670.40 366.93 C 685.22 376.49 700.40 387.28 708.81 403.26 C 710.37 405.78 710.85 408.73 710.69 411.67 C 715.78 415.87 720.44 420.89 723.10 427.00 C 725.08 432.76 724.52 438.98 724.44 444.96 C 723.27 462.58 721.04 480.11 718.28 497.55 C 707.78 563.21 693.81 628.25 679.93 693.27 C 679.49 695.15 679.23 697.07 679.07 699.01 C 684.53 700.81 690.33 700.38 696.00 700.29 C 728.65 698.37 761.34 694.14 794.09 696.39 C 810.30 697.34 826.58 700.13 841.58 706.55 C 843.80 707.66 846.89 708.37 847.00 711.40 C 840.58 709.21 834.64 705.75 828.04 704.04 C 811.74 699.75 794.81 698.32 778.00 698.25 C 752.94 697.92 727.99 700.46 703.04 702.31 C 695.86 702.53 688.61 703.20 681.48 702.18 C 678.69 701.85 675.49 699.68 676.79 696.52 C 683.47 665.75 689.92 634.93 696.21 604.08 C 704.85 560.70 713.41 517.27 719.31 473.43 C 719.93 466.26 721.57 459.20 721.60 451.99 C 721.96 444.23 722.94 436.33 721.17 428.67 C 718.72 422.56 714.05 417.68 709.19 413.40 C 705.13 414.92 700.79 414.37 696.71 413.32 C 685.76 410.50 675.36 405.84 665.40 400.54 C 661.42 398.17 656.70 396.24 654.52 391.87 C 658.12 390.43 661.88 391.81 665.50 392.48 C 680.75 395.70 695.78 400.98 708.73 409.83 C 705.19 398.26 696.24 389.35 687.16 381.81 C 681.25 377.05 674.97 372.78 668.65 368.59 C 663.40 372.64 658.72 378.22 651.94 379.59 C 651.87 373.17 647.17 368.03 641.77 365.17 C 634.53 361.32 626.12 359.81 617.97 360.56 C 614.94 360.74 611.43 361.24 608.95 359.05 C 605.55 356.49 605.09 351.89 604.83 347.96 C 604.91 335.45 608.60 323.37 610.13 311.02 C 610.36 307.97 610.90 304.56 609.03 301.89 C 607.74 301.15 606.13 300.98 604.88 301.87 C 599.60 305.12 597.09 311.63 591.34 314.24 C 588.18 315.47 584.56 312.43 585.15 309.10 C 585.83 301.44 591.26 295.38 595.65 289.45 C 595.92 284.75 595.85 279.68 598.75 275.68 C 600.27 272.86 603.43 271.70 605.49 269.41 C 606.80 266.27 606.11 262.30 608.79 259.78 C 613.25 255.38 619.68 254.00 625.59 252.71 C 641.17 249.91 657.82 250.35 672.58 256.55 C 676.10 258.13 679.78 259.74 682.49 262.59 C 684.48 264.54 683.75 268.02 681.48 269.42 C 674.32 274.33 664.94 274.65 658.05 280.03 C 661.96 284.17 668.99 285.21 670.82 291.26 C 673.86 300.45 664.70 308.38 666.42 317.53 C 667.90 321.43 672.11 322.97 675.68 324.40 C 677.32 325.08 679.23 326.08 678.84 328.20 C 675.88 329.95 672.34 329.46 669.06 329.80 C 657.01 330.77 644.68 329.58 632.88 332.76 C 630.89 333.25 629.35 334.65 627.86 335.95 C 630.83 341.65 636.80 344.59 641.75 348.28 C 650.32 354.47 659.52 359.70 668.30 365.57 C 680.07 354.55 691.55 343.01 700.67 329.65 C 709.18 317.50 710.71 301.69 708.42 287.37 C 706.06 271.68 696.94 256.95 683.23 248.74 C 665.34 238.06 642.69 235.09 622.87 241.90 C 623.48 242.99 624.11 244.08 624.73 245.18 C 610.50 255.99 596.03 266.69 583.60 279.59 C 576.00 287.31 572.46 297.80 568.76 307.74 C 564.98 317.75 561.46 328.19 554.61 336.61 C 551.83 339.78 549.86 344.26 551.44 348.45 C 553.85 355.72 560.34 360.38 565.11 366.03 C 567.39 368.49 566.52 372.02 566.33 375.03 C 570.03 373.16 573.99 371.93 577.99 370.91 C 591.04 367.53 604.48 365.20 618.00 365.49 C 626.76 365.45 635.73 367.80 642.68 373.30 C 647.33 377.25 651.34 383.02 650.58 389.41 C 645.46 390.49 640.21 390.39 635.02 390.65 C 596.09 392.75 557.03 394.94 518.58 401.80 C 515.88 402.28 513.21 402.92 510.60 403.76 C 521.91 406.07 531.36 414.19 536.72 424.24 C 544.93 439.09 546.52 456.38 547.45 473.00 C 548.25 502.98 543.58 532.74 538.37 562.16 C 537.52 567.69 535.81 573.23 536.80 578.86 C 542.21 577.76 545.70 573.11 549.43 569.45 C 561.87 555.60 572.46 540.24 582.85 524.84 C 584.68 522.36 586.59 519.02 590.19 519.51 C 591.53 524.54 590.27 529.69 589.47 534.69 C 586.84 548.79 583.34 562.75 581.90 577.05 C 581.54 581.35 581.12 586.07 583.78 589.80 C 588.71 588.31 592.40 584.48 595.83 580.83 C 605.77 569.06 613.68 555.75 621.66 542.62 C 633.04 523.57 643.48 503.96 655.08 485.05 C 658.70 479.45 662.16 473.60 667.02 468.97 C 668.49 467.39 671.13 466.35 672.98 467.94 C 675.39 471.46 674.47 475.99 674.54 479.99 C 673.46 495.88 669.31 511.37 664.56 526.51 C 652.47 563.64 635.94 599.19 617.44 633.52 C 605.93 654.49 593.72 675.18 579.10 694.15 C 572.98 701.74 566.67 709.69 557.83 714.24 C 591.93 713.39 625.86 708.85 659.99 708.64 C 665.16 708.80 670.64 708.39 675.49 710.52 C 678.16 711.87 676.20 715.26 673.99 715.89 C 668.35 718.07 662.19 718.25 656.25 719.02 C 630.61 721.26 604.84 721.46 579.13 722.10 C 525.42 722.76 471.71 722.27 418.01 721.37 C 376.99 720.45 335.96 719.65 294.99 717.64 C 274.04 716.77 253.06 715.89 232.23 713.38 C 229.95 712.96 227.45 712.82 225.51 711.43 C 224.19 709.95 223.60 707.99 223.12 706.12 C 221.09 697.22 221.35 688.05 220.94 678.99 C 221.02 661.46 221.95 643.95 222.53 626.43 C 215.49 627.83 208.73 631.06 201.43 630.71 C 201.86 655.46 202.24 680.28 200.39 704.99 C 200.13 708.08 199.83 711.99 196.49 713.33 C 189.75 716.25 182.19 715.54 175.02 715.56 C 149.34 714.68 123.74 710.95 98.00 711.89 C 84.52 712.71 69.26 713.86 59.59 724.57 C 59.57 723.81 59.54 722.29 59.53 721.54 C 67.45 712.75 80.04 711.15 91.17 709.92 C 114.77 708.20 138.38 710.93 161.91 712.49 C 172.48 712.96 183.33 714.51 193.73 711.84 C 196.99 711.31 197.94 708.08 197.96 705.22 C 199.90 680.18 199.32 655.03 199.36 629.93 C 193.81 629.26 188.54 627.27 183.20 625.73 C 175.16 623.07 166.82 620.85 159.50 616.49 C 156.37 614.58 156.15 610.70 156.54 607.44 C 154.47 605.54 151.91 603.80 151.13 600.95 C 149.84 597.68 151.33 593.77 149.06 590.87 C 146.45 586.77 145.45 581.46 146.95 576.80 C 147.77 574.36 150.55 573.32 151.50 571.02 C 150.97 566.05 149.66 561.01 151.00 556.03 C 151.94 550.36 155.67 545.35 160.76 542.70 C 167.56 539.11 176.32 537.71 183.22 541.82 C 190.30 540.08 196.81 536.10 202.06 531.07 C 201.51 530.07 201.04 529.04 200.65 527.99 C 202.71 436.00 204.26 343.99 206.00 252.00 C 206.38 236.00 206.62 219.99 206.79 203.98 C 207.65 182.67 207.33 161.32 208.11 140.00 C 208.61 109.32 209.13 78.65 209.81 47.98 M 211.92 51.43 C 211.59 69.28 211.73 87.15 210.82 104.97 C 210.99 118.29 210.57 131.62 210.37 144.94 C 208.04 269.62 205.90 394.31 203.28 518.98 C 203.22 522.26 203.02 525.56 203.47 528.83 C 206.50 525.54 207.81 520.78 207.03 516.39 C 205.50 507.01 203.96 497.49 204.68 487.95 C 205.18 484.44 206.09 480.22 209.50 478.40 C 212.59 477.23 215.07 480.10 216.46 482.48 C 221.26 490.83 223.31 500.35 226.13 509.47 C 226.52 480.31 227.44 451.17 227.77 422.02 C 229.13 364.01 229.87 306.00 231.24 247.99 C 231.91 198.98 233.22 149.98 233.86 100.97 C 234.48 94.33 233.83 87.64 234.61 81.01 C 238.26 82.39 241.71 84.21 245.25 85.83 C 308.38 115.68 371.56 145.43 434.67 175.33 C 435.37 171.01 435.88 166.67 436.51 162.35 C 361.64 125.39 286.85 88.27 211.92 51.43 M 522.35 124.79 C 523.50 132.10 521.41 139.48 522.50 146.81 C 526.37 147.81 530.96 146.00 534.20 148.87 C 531.35 151.44 527.74 152.83 524.62 155.00 C 524.78 158.65 523.93 162.72 526.07 165.95 C 528.24 167.80 530.69 169.49 531.79 172.26 C 532.97 175.55 537.03 176.45 538.08 179.84 C 538.93 182.89 542.34 184.64 542.28 187.98 C 542.64 194.53 541.73 201.09 540.65 207.53 C 535.55 208.47 530.37 208.99 525.31 210.13 C 537.28 210.62 549.24 209.12 561.22 209.38 C 559.07 203.81 559.57 197.82 559.31 192.01 C 556.73 182.72 551.36 174.44 548.88 165.10 C 543.30 165.90 537.53 166.72 532.03 165.08 C 529.90 164.46 527.75 162.60 528.11 160.18 C 529.10 157.81 531.79 157.04 533.83 155.82 C 537.34 154.19 539.56 150.83 542.80 148.80 C 544.38 147.67 546.35 148.50 548.09 148.68 C 552.39 149.56 556.83 149.85 561.04 151.14 C 562.76 151.61 564.30 152.89 566.18 152.55 C 571.31 152.25 576.51 152.42 581.50 153.77 C 582.73 146.27 583.15 138.13 579.92 131.06 C 578.23 127.04 573.61 126.13 569.76 125.62 C 554.03 123.70 538.15 124.58 522.35 124.79 M 511.42 127.13 C 510.53 133.61 509.75 140.10 509.22 146.62 C 507.81 147.00 506.40 147.39 505.00 147.79 C 505.47 148.40 506.40 149.61 506.87 150.22 C 510.35 150.45 513.86 150.18 517.35 150.40 C 517.52 142.70 518.20 135.02 518.56 127.33 C 516.18 127.24 513.80 127.17 511.42 127.13 M 485.37 128.40 C 485.31 129.57 485.25 130.75 485.19 131.93 C 486.14 132.20 487.10 132.47 488.06 132.75 C 488.18 136.36 488.46 139.96 488.72 143.57 C 493.68 143.77 498.62 144.23 503.57 144.56 C 503.65 139.28 503.81 134.01 503.99 128.73 C 497.79 128.38 491.57 128.54 485.37 128.40 M 453.03 133.75 C 460.92 134.99 468.97 134.18 476.90 135.05 C 479.17 135.32 481.47 135.37 483.73 134.98 C 473.60 133.64 463.24 133.09 453.03 133.75 M 514.01 160.14 C 515.61 162.77 518.59 162.87 521.36 162.96 C 521.22 160.61 521.19 158.26 521.30 155.91 C 518.63 156.88 516.01 158.06 514.01 160.14 M 563.80 156.41 C 565.87 166.99 575.37 174.39 577.03 185.07 C 577.52 192.67 572.96 199.19 570.76 206.17 C 570.00 207.98 571.01 209.78 571.51 211.51 C 574.65 220.63 577.90 229.72 581.36 238.72 C 584.29 246.37 587.07 254.21 591.88 260.93 C 598.83 251.80 608.68 245.24 619.14 240.76 C 605.19 218.90 591.50 196.81 576.13 175.90 C 571.66 169.63 568.51 162.51 563.80 156.41 M 517.09 170.60 C 520.70 173.21 525.15 174.00 529.51 173.97 C 528.00 172.17 526.43 170.42 524.82 168.72 C 522.16 168.96 519.48 169.34 517.09 170.60 M 526.22 182.21 C 527.60 182.88 528.99 183.92 530.62 183.66 C 532.88 182.31 531.28 179.23 531.35 177.14 C 529.09 178.23 527.23 179.88 526.22 182.21 M 534.41 177.81 C 534.27 180.07 534.20 182.32 534.06 184.58 C 535.04 184.11 536.03 183.64 537.02 183.18 C 536.17 181.38 535.31 179.58 534.41 177.81 M 531.28 189.06 C 532.92 191.51 535.30 193.32 538.34 193.50 C 538.48 190.78 538.01 188.10 537.40 185.47 C 535.24 186.45 533.16 187.60 531.28 189.06 M 520.68 212.54 C 522.79 215.25 523.88 220.04 528.00 220.06 C 538.76 220.51 549.54 220.09 560.27 219.21 C 561.35 216.81 562.28 214.35 562.92 211.79 C 548.84 211.53 534.77 213.06 520.68 212.54 M 561.42 221.29 C 553.37 222.70 545.14 222.43 537.00 222.59 C 532.99 222.45 528.88 222.92 524.95 221.99 C 521.85 220.20 520.61 216.55 518.68 213.73 C 518.01 221.89 517.99 230.13 518.94 238.27 C 530.52 239.09 542.13 238.07 553.69 237.27 C 557.89 236.86 562.10 236.45 566.22 235.49 C 568.34 227.40 567.93 218.76 565.73 210.74 C 564.53 214.30 564.07 218.43 561.42 221.29 M 626.71 254.93 C 621.25 256.12 615.38 257.27 611.01 261.00 C 608.16 263.36 609.30 267.54 607.68 270.52 C 605.88 273.14 602.56 274.23 600.87 276.96 C 598.85 279.76 598.32 283.24 598.04 286.60 C 601.23 283.98 603.89 280.13 608.08 279.15 C 610.90 278.38 612.97 281.44 612.43 284.01 C 611.61 289.58 609.15 295.83 603.72 298.36 C 603.02 295.60 603.33 292.76 603.70 289.99 C 601.64 290.96 599.47 291.72 597.17 291.40 C 593.31 296.51 589.13 301.73 587.56 308.06 C 587.02 310.03 587.79 311.82 589.91 312.23 C 596.00 309.47 598.45 302.22 604.48 299.37 C 608.27 297.27 612.99 300.98 612.62 305.09 C 612.95 319.92 606.68 334.11 607.38 348.98 C 607.43 351.80 608.03 354.83 610.09 356.92 C 611.91 358.64 614.58 358.45 616.90 358.26 C 625.02 357.40 633.56 358.45 640.87 362.27 C 646.93 365.15 652.71 369.82 654.32 376.65 C 658.63 373.85 662.61 370.59 666.44 367.18 C 657.36 361.44 648.35 355.56 639.39 349.63 C 635.36 346.69 630.92 344.12 627.65 340.28 C 625.78 338.25 625.28 334.54 627.68 332.71 C 630.86 330.22 635.04 329.73 638.89 329.03 C 651.34 327.46 663.93 327.89 676.44 327.20 C 671.53 325.49 665.60 323.32 663.97 317.79 C 662.07 308.88 670.49 301.33 668.64 292.42 C 667.17 287.33 661.43 286.20 657.81 283.18 C 655.61 281.80 655.76 278.30 658.01 277.05 C 665.26 271.94 675.26 272.10 681.79 265.78 C 678.81 261.58 673.82 259.70 669.24 257.81 C 655.71 252.86 640.81 252.44 626.71 254.93 M 599.09 289.14 C 600.71 288.53 602.30 287.79 603.99 287.33 C 606.59 288.20 605.73 291.54 606.49 293.63 C 608.32 289.63 610.91 285.38 609.38 280.81 C 605.34 282.75 602.12 285.92 599.09 289.14 M 571.42 375.45 C 568.86 376.61 565.29 377.35 564.65 380.55 C 562.86 385.49 560.35 390.20 556.68 394.01 C 587.22 390.47 617.96 389.38 648.62 387.42 C 647.54 382.04 644.26 377.33 639.84 374.15 C 633.17 368.78 624.23 368.02 616.00 367.76 C 600.89 368.13 585.77 370.65 571.42 375.45 M 554.15 392.68 C 557.91 389.80 560.05 385.46 561.88 381.21 C 558.44 384.35 555.46 388.15 554.15 392.68 M 659.05 393.81 C 668.03 399.80 677.92 404.33 688.01 408.11 C 694.03 410.26 700.32 412.34 706.82 411.81 C 692.88 401.69 675.84 396.72 659.05 393.81 M 481.23 420.22 C 470.32 432.41 462.59 447.00 455.77 461.76 C 446.76 481.89 439.59 502.85 434.39 524.28 C 432.95 530.75 431.28 537.25 431.15 543.91 C 437.08 528.25 441.47 512.04 447.21 496.31 C 454.93 474.70 463.51 453.21 475.75 433.71 C 481.89 423.85 489.33 414.75 498.42 407.45 C 491.77 410.27 486.06 414.91 481.23 420.22 M 208.19 529.18 C 205.30 530.02 203.89 532.90 201.69 534.70 C 196.62 539.46 190.05 541.98 183.77 544.63 C 180.36 547.84 175.85 549.87 171.18 550.19 C 169.53 550.23 168.43 548.75 167.13 547.99 C 169.45 543.08 175.85 544.48 180.17 542.86 C 169.62 539.04 154.89 545.14 153.26 557.09 C 151.81 562.22 154.23 567.35 153.63 572.50 C 152.43 574.70 150.01 575.94 148.87 578.20 C 147.86 582.97 149.59 587.76 152.39 591.58 C 153.27 595.30 152.06 599.91 155.11 602.85 C 156.48 604.50 159.11 605.64 158.87 608.13 C 159.02 610.05 158.49 612.44 160.14 613.88 C 163.11 616.23 166.78 617.44 170.26 618.84 C 180.04 622.59 190.23 625.09 200.17 628.37 C 204.90 623.50 211.96 622.44 218.35 621.28 C 226.00 619.83 233.76 622.13 240.67 625.32 C 252.40 630.71 263.07 638.07 273.67 645.36 C 288.60 655.44 302.39 667.35 318.61 675.40 C 339.31 686.10 361.37 693.99 383.79 700.23 C 405.06 705.83 426.91 710.42 449.02 709.84 C 454.46 709.68 460.06 709.44 465.13 707.23 C 471.27 704.89 476.49 700.69 481.09 696.08 C 491.74 685.55 499.44 672.52 506.39 659.37 C 515.82 640.87 523.40 621.34 528.20 601.12 C 529.56 594.55 531.16 587.79 530.19 581.06 C 528.36 575.55 522.81 572.61 518.16 569.77 C 502.81 561.59 485.89 556.87 468.99 553.12 C 460.13 551.44 451.11 549.46 442.05 550.16 C 438.57 550.27 436.56 553.56 435.40 556.45 C 430.50 568.98 431.33 582.71 428.68 595.72 C 427.91 598.09 427.47 601.74 424.63 602.39 C 381.39 604.12 337.99 599.60 295.83 589.99 C 279.80 586.03 263.53 581.97 248.90 574.11 C 242.62 571.01 239.28 564.52 236.60 558.40 C 231.59 547.25 230.40 534.91 226.12 523.54 C 219.77 524.01 214.10 527.11 208.19 529.18 Z" opacity="1.00" fill="#000000"></path>
</g>
</svg>
