<?xml version="1.0" encoding="utf-8"?>
<!-- Generator: Adobe Illustrator 27.6.1, SVG Export Plug-In . SVG Version: 6.00 Build 0)  -->
<svg version="1.1" id="Layer_3" xmlns="http://www.w3.org/2000/svg" xmlns:xlink="http://www.w3.org/1999/xlink" x="0px" y="0px"
	 viewBox="0 0 47.5 47.5" style="enable-background:new 0 0 47.5 47.5;" xml:space="preserve">
<style type="text/css">
	.st0{fill:none;stroke:#000000;stroke-width:2;stroke-miterlimit:10;}
	.st1{fill:none;stroke:#000000;stroke-width:1.5;stroke-linecap:round;stroke-miterlimit:10;}
	.st2{fill:none;stroke:#000000;stroke-width:1.8;stroke-linecap:round;stroke-miterlimit:10;}
</style>
<polygon class="st0" points="9.5,14.1 9.5,30.7 23.8,38.8 38,30.7 38,14.1 23.8,5.9 "/>
<line class="st1" x1="23.8" y1="37.3" x2="23.8" y2="33.5"/>
<line class="st1" x1="23.8" y1="29.3" x2="23.8" y2="25.6"/>
<line class="st1" x1="43.7" y1="32.8" x2="43.7" y2="28.3"/>
<line class="st1" x1="38.6" y1="8.7" x2="38.6" y2="1.5"/>
<line class="st1" x1="43.7" y1="23.2" x2="43.7" y2="5.1"/>
<line class="st1" x1="3.8" y1="32.8" x2="3.8" y2="28.3"/>
<line class="st1" x1="8.9" y1="8.7" x2="8.9" y2="1.5"/>
<line class="st1" x1="3.8" y1="23.2" x2="3.8" y2="5.1"/>
<line class="st1" x1="25.3" y1="21.7" x2="28.6" y2="19.8"/>
<line class="st1" x1="31.9" y1="17.9" x2="35.2" y2="16"/>
<line class="st1" x1="22.3" y1="21.7" x2="19" y2="19.8"/>
<line class="st1" x1="15.7" y1="17.9" x2="12.4" y2="16"/>
<g>
	<path class="st2" d="M10.2,35c-1.3,1.2-2.1,2.5-2.1,4c0,4.3,6.8,7.8,15.3,7.8c8.4,0,15.3-3.5,15.3-7.8c0-1.4-0.8-2.8-2.1-4"/>
</g>
</svg>
